<?xml version="1.0" encoding="UTF-8"?>
<svg xmlns="http://www.w3.org/2000/svg" xmlns:xlink="http://www.w3.org/1999/xlink" viewBox="0 0 50 50" version="1.1" fill="#337ab7" width="50px" height="50px">
<g id="surface1" fill="#337ab7">
<path style=" " d="M 12 0 C 10.90625 0 10 0.90625 10 2 L 10 4 L 4 4 C 2.839844 4 2 4.839844 2 6 L 2 13 L 48 13 L 48 6 C 48 4.839844 47.160156 4 46 4 L 40 4 L 40 2 C 40 0.90625 39.09375 0 38 0 L 36 0 C 34.90625 0 34 0.90625 34 2 L 34 4 L 16 4 L 16 2 C 16 0.90625 15.09375 0 14 0 Z M 12 2 L 14 2 L 14 8 L 12 8 Z M 36 2 L 38 2 L 38 8 L 36 8 Z M 2 15 L 2 46 C 2 47.160156 2.839844 48 4 48 L 46 48 C 47.160156 48 48 47.160156 48 46 L 48 15 Z M 12 21 L 17 21 L 17 26 L 12 26 Z M 19 21 L 24 21 L 24 26 L 19 26 Z M 26 21 L 31 21 L 31 26 L 26 26 Z M 33 21 L 38 21 L 38 26 L 33 26 Z M 12 28 L 17 28 L 17 33 L 12 33 Z M 19 28 L 24 28 L 24 33 L 19 33 Z M 26 28 L 31 28 L 31 33 L 26 33 Z M 33 28 L 38 28 L 38 33 L 33 33 Z M 12 35 L 17 35 L 17 40 L 12 40 Z M 19 35 L 24 35 L 24 40 L 19 40 Z M 26 35 L 31 35 L 31 40 L 26 40 Z M 33 35 L 38 35 L 38 40 L 33 40 Z " fill="#337ab7"/>
</g>
</svg>
